<?xml version="1.0" encoding="UTF-8"?>
<svg width="700pt" height="700pt" version="1.1" viewBox="0 0 700 700" xmlns="http://www.w3.org/2000/svg">
 <path d="m417.8 380.8c-31.605 24.57-71.328 39.203-114.46 39.203-103.09 0-186.66-83.574-186.66-186.67s83.57-186.66 186.66-186.66 186.67 83.57 186.67 186.66c0 43.137-14.633 82.859-39.203 114.46l125.7 125.7c9.1094 9.1133 9.1094 23.887 0 33-9.1133 9.1094-23.887 9.1094-33 0zm25.535-147.46c0 77.32-62.68 140-140 140-77.32 0-140-62.68-140-140 0-77.32 62.68-140 140-140 77.32 0 140 62.68 140 140z" fill-rule="evenodd" fill="#F2F2F1"/>
</svg>
